<svg id="tree_leave_3" data-name="tree leave 3" xmlns="http://www.w3.org/2000/svg" width="101.997" height="54.473" viewBox="0 0 101.997 54.473">
  <path id="tree_leave_3-2" data-name="tree leave 3" d="M584,452.447h-9.242s-.99-13.847-15.844-27.067c0,0-6.211-5.781-12.543-8.582l.99-3.631S575.186,420.388,584,452.447ZM544.057,416.8h.99S534.99,435.426,512.7,426.37c0,0-16.575-8.3-30.7-7.592l7.922-7.592Zm-38.29-4.951s6.835-3,19.021-2.736a78.991,78.991,0,0,1,22.57,4.057l-.487,1.773-.5,1.858a3.73,3.73,0,0,0-2.311,0l-38.29-3.3Zm0,0v1.65l-6.6-.33-9.242-1.65s4.829-5.27,15.184-10.233Zm0,0s10.728-6.914,33.009-4.951c0,0-6.741-10.965-24.1-8.582a46.044,46.044,0,0,0-9.573,2.971" transform="translate(-482 -397.973)" fill="#4c8613" fill-rule="evenodd"/>
</svg>
