<svg xmlns="http://www.w3.org/2000/svg" width="35.752" height="17.808" viewBox="0 0 35.752 17.808">
  <g id="car" transform="translate(0 -136.747)">
    <g id="Group_17684" data-name="Group 17684" transform="translate(0.745 137.494)">
      <path id="Path_21632" data-name="Path 21632" d="M30.859,159.758H35.5a2.86,2.86,0,0,1,5.72,0h1.5a1.583,1.583,0,0,0,1.525-1.634v-4.991c0-1.066-.738-1.606-1.741-2.447L38.688,147.5a3.183,3.183,0,0,0-2.036-.751H25.4a3.165,3.165,0,0,0-2,.722l-3.719,3.023-.669.544a3.2,3.2,0,0,1-1.4.663l-4.792,1.254a2.82,2.82,0,0,0-2.039,1.755l-.615,1.566a2.521,2.521,0,0,0,2.156,3.484h2.173a2.959,2.959,0,0,1,2.86-2.847,2.959,2.959,0,0,1,2.86,2.847H30.859Z" transform="translate(-9.982 -146.748)" fill="#ececec"/>
    </g>
    <g id="Group_17685" data-name="Group 17685" transform="translate(10.1 137.494)">
      <path id="Path_21633" data-name="Path 21633" d="M161.1,146.752v4.257a1.007,1.007,0,0,1-1.007,1.007h-8.935a1.925,1.925,0,0,1-1.881-1.519l3.987-3.023a3.549,3.549,0,0,1,2.146-.722Z" transform="translate(-149.273 -146.752)" fill="#f9f5f3"/>
    </g>
    <g id="Group_17686" data-name="Group 17686" transform="translate(24.254 137.494)">
      <path id="Path_21634" data-name="Path 21634" d="M366.887,150.69a3.134,3.134,0,0,1-2.409,1.128H359.01A1.007,1.007,0,0,1,358,150.811v-4.052l0-.007h2.61a3.55,3.55,0,0,1,2.183.75Z" transform="translate(-358.003 -146.752)" fill="#f9f5f3"/>
    </g>
    <g id="Group_17687" data-name="Group 17687" transform="translate(6.02 147.657)">
      <circle id="Ellipse_93" data-name="Ellipse 93" cx="3.075" cy="3.075" r="3.075" transform="translate(0 0)" fill="#ececec"/>
    </g>
    <g id="Group_17688" data-name="Group 17688" transform="translate(25.621 147.657)">
      <circle id="Ellipse_94" data-name="Ellipse 94" cx="3.075" cy="3.075" r="3.075" transform="translate(0 0)" fill="#ececec"/>
    </g>
    <g id="Group_17689" data-name="Group 17689" transform="translate(0 136.747)">
      <path id="Path_21635" data-name="Path 21635" d="M33.928,141l-4.015-3.346a3.884,3.884,0,0,0-2.471-.909H16.159a4.229,4.229,0,0,0-2.691,1.087l-4.137,3.354a2.548,2.548,0,0,1-1.112.524l-.041.009-4.786,1.249a3.541,3.541,0,0,0-2.543,2.2L.234,146.73a3.431,3.431,0,0,0,.282,3.054,2.986,2.986,0,0,0,2.523,1.466H4.547a3.669,3.669,0,0,0,3.541,3.3,3.669,3.669,0,0,0,3.541-3.3H15.49a.748.748,0,0,0,0-1.493H11.544a3.671,3.671,0,0,0-3.456-2.847,3.674,3.674,0,0,0-3.456,2.847H3.039a1.614,1.614,0,0,1-1.36-.8,1.828,1.828,0,0,1-.159-1.649l.143-.364h1.1a.748.748,0,0,0,0-1.493H2.279a2.077,2.077,0,0,1,1.384-1.018l.041-.009,4.786-1.249a3.909,3.909,0,0,0,1.666-.785,2.464,2.464,0,0,0,2.026,1.113h8.356a1.7,1.7,0,0,0,1.64-1.753v-3.51H24.3v3.313a1.7,1.7,0,0,0,1.64,1.753h5.114a3.478,3.478,0,0,0,2.3-.884c.687.582,1,.92,1,1.456v4.991a.862.862,0,0,1-.831.887H32.61a3.521,3.521,0,0,0-6.912,0H21.633a.748.748,0,0,0,0,1.493h3.98a3.549,3.549,0,0,0,7.082,0h.83a2.311,2.311,0,0,0,2.228-2.381v-4.991c0-1.362-.845-2.064-1.824-2.877ZM8.087,153.061a2.26,2.26,0,0,1-2.178-2.329,2.293,2.293,0,0,1,2.069-2.326,2.33,2.33,0,0,1,.109,4.655Zm12.695-11.31a.252.252,0,0,1-.243.26H12.183a1.09,1.09,0,0,1-.914-.521l3.306-2.679a2.533,2.533,0,0,1,1.584-.57h4.623v3.51Zm5.159.062a.252.252,0,0,1-.243-.26v-3.312h1.744a2.533,2.533,0,0,1,1.613.593l3.16,2.634a2.121,2.121,0,0,1-1.159.346H25.941Zm3.213,11.248a2.26,2.26,0,0,1-2.178-2.329,2.183,2.183,0,1,1,4.356,0A2.26,2.26,0,0,1,29.153,153.061Z" transform="translate(0 -136.747)" fill="#828282"/>
      <path id="Path_21636" data-name="Path 21636" d="M276.877,254.076a.747.747,0,0,0-.747-.747H274.62a.747.747,0,0,0,0,1.493h1.511A.747.747,0,0,0,276.877,254.076Z" transform="translate(-254.861 -244.624)" fill="#828282"/>
      <path id="Path_21637" data-name="Path 21637" d="M258.234,311.468a.746.746,0,1,0-.4.975A.753.753,0,0,0,258.234,311.468Z" transform="translate(-238.917 -297.997)" fill="#828282"/>
    </g>
  </g>
</svg>
