<svg id="COCO_Line_Unlock" data-name="COCO/Line/Unlock" xmlns="http://www.w3.org/2000/svg" width="24" height="24" viewBox="0 0 24 24">
  <path id="Vector" d="M.306,8.408A5.265,5.265,0,0,1,4.38,4.673l.276-.056a16.81,16.81,0,0,1,6.688,0l.276.056a5.265,5.265,0,0,1,4.074,3.735,8.788,8.788,0,0,1-.347,5.623l-.093.228a5.753,5.753,0,0,1-4.469,3.466l-.749.117a13.2,13.2,0,0,1-4.073,0l-.749-.117A5.753,5.753,0,0,1,.746,14.259l-.093-.228A8.788,8.788,0,0,1,.306,8.408Z" transform="translate(4 3)" fill="none" stroke="#363853" stroke-linecap="round" stroke-width="1.5"/>
  <path id="Vector-2" data-name="Vector" d="M3.644,4.445V4.209A4.235,4.235,0,0,1,6.919.144L6.987.127A4.269,4.269,0,0,1,9.015.118a4.148,4.148,0,0,1,1.905,1.035l.255.245" transform="translate(4 3)" fill="none" stroke="#363853" stroke-linecap="round" stroke-width="1.5"/>
  <path id="Vector-3" data-name="Vector" d="M0,0V2" transform="translate(12 13.5)" fill="none" stroke="#363853" stroke-linecap="round" stroke-width="1.5"/>
</svg>
