<svg xmlns="http://www.w3.org/2000/svg" width="19.51" height="19.51" viewBox="0 0 19.51 19.51">
  <g id="COCO_Duotone_Add" data-name="COCO/Duotone/Add" transform="translate(-2.245 -2.245)">
    <path id="Vector" d="M.353,5.95a7.511,7.511,0,0,1,5.6-5.6,13.354,13.354,0,0,1,6.1,0,7.511,7.511,0,0,1,5.6,5.6,13.354,13.354,0,0,1,0,6.1,7.511,7.511,0,0,1-5.6,5.6,13.354,13.354,0,0,1-6.1,0,7.511,7.511,0,0,1-5.6-5.6A13.354,13.354,0,0,1,.353,5.95Z" transform="translate(3 3)" fill="rgba(54,56,83,0.15)" stroke="#828282" stroke-width="1.5"/>
    <g id="COCO_Line_User" data-name="COCO/Line/User" transform="translate(3.046 3.916)">
      <path id="Vector-2" data-name="Vector" d="M0,13.887a2.748,2.748,0,0,1,2.262-2.739l.117-.019a9.678,9.678,0,0,1,3.15,0l.117.019a2.748,2.748,0,0,1,2.262,2.739,1.05,1.05,0,0,1-1.033,1.067H1.033A1.05,1.05,0,0,1,0,13.887Z" transform="translate(5 -1.786)" fill="#828282"/>
      <path id="Vector-3" data-name="Vector" d="M7.53,2.224A2.267,2.267,0,0,1,5.223,4.448,2.267,2.267,0,0,1,2.917,2.224,2.267,2.267,0,0,1,5.223,0,2.267,2.267,0,0,1,7.53,2.224Z" transform="translate(3.731 3)" fill="#828282"/>
    </g>
  </g>
</svg>
